<svg width="42" height="42" viewBox="0 0 42 42" fill="none" xmlns="http://www.w3.org/2000/svg">
<path d="M4.58169 22.9445C4.05297 21.9941 3.78862 21.5188 3.78862 21C3.78862 20.4812 4.05297 20.0059 4.58168 19.0555L7.75414 13.3525L11.1069 7.75357C11.6656 6.82048 11.945 6.35393 12.3943 6.09451C12.8436 5.83509 13.3874 5.82641 14.4748 5.80907L21 5.705L27.5252 5.80907C28.6126 5.82641 29.1564 5.83509 29.6057 6.09451C30.055 6.35393 30.3344 6.82048 30.8931 7.75357L34.2459 13.3525L37.4183 19.0555C37.947 20.0059 38.2114 20.4812 38.2114 21C38.2114 21.5188 37.947 21.9941 37.4183 22.9445L34.2459 28.6475L30.8931 34.2464C30.3344 35.1795 30.055 35.6461 29.6057 35.9055C29.1564 36.1649 28.6126 36.1736 27.5252 36.1909L21 36.295L14.4748 36.1909C13.3874 36.1736 12.8436 36.1649 12.3943 35.9055C11.945 35.6461 11.6656 35.1795 11.1069 34.2464L7.75414 28.6475L4.58169 22.9445Z" stroke="#A56ADD" stroke-width="2"/>
<circle cx="21" cy="21" r="5.25" stroke="#A56ADD" stroke-width="2"/>
</svg>
